<svg width="19" height="19" viewBox="0 0 19 19" fill="none" xmlns="http://www.w3.org/2000/svg">
<g clip-path="url(#clip0_407_739)">
<path d="M4.34417 8.34042C5.72417 11.0525 7.9475 13.2662 10.6596 14.6558L12.7679 12.5475C13.0267 12.2887 13.41 12.2025 13.7454 12.3175C14.8188 12.6721 15.9783 12.8637 17.1667 12.8637C17.6938 12.8637 18.125 13.295 18.125 13.8221V17.1667C18.125 17.6938 17.6938 18.125 17.1667 18.125C8.16792 18.125 0.875 10.8321 0.875 1.83333C0.875 1.30625 1.30625 0.875 1.83333 0.875H5.1875C5.71458 0.875 6.14583 1.30625 6.14583 1.83333C6.14583 3.03125 6.3375 4.18125 6.69208 5.25458C6.7975 5.59 6.72083 5.96375 6.4525 6.23208L4.34417 8.34042Z" fill="#009BFF"/>
</g>
<defs>
<clipPath id="clip0_407_739">
<rect width="19" height="19" fill="white"/>
</clipPath>
</defs>
</svg>
